<svg xmlns="http://www.w3.org/2000/svg" width="512" height="512" viewBox="0 0 512 512" version="1.1"><path d="" stroke="none" fill="#080404" fill-rule="evenodd"/><path d="M 97.500 86.896 C 87.089 91.716, 82.174 104.217, 86.535 114.782 C 87.607 117.380, 108.761 139.203, 156.782 187.250 L 225.495 256 156.782 324.750 C 108.761 372.797, 87.607 394.620, 86.535 397.218 C 79.327 414.680, 97.320 432.673, 114.782 425.465 C 117.380 424.393, 139.203 403.239, 187.250 355.218 L 256 286.505 324.750 355.218 C 372.797 403.239, 394.620 424.393, 397.218 425.465 C 407.636 429.766, 420.497 424.718, 425.135 414.509 C 427.371 409.586, 427.513 402.178, 425.465 397.218 C 424.393 394.620, 403.239 372.797, 355.218 324.750 L 286.505 256 355.218 187.250 C 403.239 139.203, 424.393 117.380, 425.465 114.782 C 428.714 106.912, 426.517 96.561, 420.376 90.803 C 414.388 85.188, 404.773 83.416, 397.218 86.535 C 394.620 87.607, 372.797 108.761, 324.750 156.782 L 256 225.495 187.250 156.782 C 139.203 108.761, 117.380 87.607, 114.782 86.535 C 109.797 84.477, 102.390 84.632, 97.500 86.896" stroke="none" fill="#040404" fill-rule="evenodd"/></svg>