<svg xmlns="http://www.w3.org/2000/svg" width="512" height="512" viewBox="0 0 512 512" version="1.1"><path d="" stroke="none" fill="#080404" fill-rule="evenodd"/><path d="M 55 96.935 C 46.669 99.479, 39.099 105.892, 34.859 114 C 32.868 117.807, 32.506 119.964, 32.508 128 C 32.509 136.362, 32.828 138.099, 35.168 142.500 C 38.354 148.490, 43.866 153.932, 50 157.144 L 54.500 159.500 256 159.500 L 457.500 159.500 462 157.144 C 473.198 151.281, 479.089 142.079, 479.791 129.352 C 480.191 122.099, 479.947 120.561, 477.568 115.352 C 474.089 107.735, 468.936 102.452, 461.500 98.882 L 455.500 96.002 256.500 96.087 C 147.050 96.134, 56.375 96.515, 55 96.935 M 55 224.935 C 50.022 226.455, 44.425 229.909, 40.856 233.665 C 35 239.828, 32.717 245.357, 32.209 254.612 C 31.813 261.820, 32.064 263.392, 34.459 268.729 C 37.775 276.118, 43.712 282.082, 51.111 285.459 L 56.722 288.019 257.111 287.760 L 457.500 287.500 462 285.144 C 473.198 279.281, 479.089 270.079, 479.791 257.352 C 480.191 250.099, 479.947 248.561, 477.568 243.352 C 474.089 235.735, 468.936 230.452, 461.500 226.882 L 455.500 224.002 256.500 224.087 C 147.050 224.134, 56.375 224.515, 55 224.935 M 50.500 354.882 C 38.619 360.586, 32.026 370.969, 32.011 384 C 32.003 390.220, 32.493 392.524, 34.882 397.500 C 38.419 404.867, 43.726 410.086, 51.111 413.457 L 56.722 416.019 257.111 415.760 L 457.500 415.500 462 413.144 C 473.198 407.281, 479.089 398.079, 479.791 385.352 C 480.191 378.099, 479.947 376.561, 477.568 371.352 C 474.089 363.735, 468.936 358.452, 461.500 354.882 L 455.500 352.002 256 352.002 L 56.500 352.002 50.500 354.882" stroke="none" fill="#040404" fill-rule="evenodd"/></svg>