<svg xmlns="http://www.w3.org/2000/svg" width="225" height="225" viewBox="0 0 225 225" version="1.1"><path d="M 109.571 1.571 C 108.331 2.812, 108 5.490, 108 14.290 L 108 25.437 102.221 19.719 C 96.509 14.067, 93.548 12.852, 91.200 15.200 C 88.769 17.631, 90.199 20.090, 99 28.609 L 108 37.321 108 54.386 L 108 71.450 100.638 64.137 C 94.937 58.474, 92.738 56.901, 90.888 57.162 C 88.611 57.484, 88.467 57.960, 87.797 67.370 C 87.410 72.799, 86.896 77.437, 86.655 77.678 C 86.414 77.919, 81.408 73.445, 75.530 67.736 L 64.843 57.355 65.005 45.928 C 65.221 30.727, 65.283 31.222, 63 30 C 59.870 28.325, 57.002 30.371, 56.991 34.285 C 56.987 36.053, 56.705 39.809, 56.366 42.631 L 55.750 47.762 46.936 38.881 C 42.088 33.997, 37.452 30, 36.633 30 C 34.642 30, 32 32.739, 32 34.803 C 32 35.716, 36.154 40.633, 41.230 45.731 L 50.460 55 43.295 55 C 33.315 55, 30.786 56.096, 31.187 60.249 L 31.500 63.500 45.500 63.775 L 59.500 64.051 70.250 74.758 C 76.162 80.647, 81 85.811, 81 86.233 C 81 86.655, 76.098 87, 70.107 87 C 61.072 87, 59.110 87.271, 58.604 88.590 C 57.830 90.607, 58.155 91.125, 65.184 99.086 C 68.383 102.709, 71 105.971, 71 106.336 C 71 106.701, 64.389 107, 56.309 107 L 41.619 107 31.933 97.484 C 24.381 90.064, 21.835 88.121, 20.374 88.661 C 15.321 90.530, 15.962 94.060, 22.624 101.044 L 28.247 106.940 14.981 107.220 C 3.623 107.460, 1.556 107.752, 0.612 109.250 C -0.190 110.525, -0.190 111.475, 0.612 112.750 C 1.555 114.247, 3.617 114.540, 14.857 114.779 C 22.086 114.932, 28 115.342, 28 115.689 C 28 116.035, 25.525 118.914, 22.500 122.085 C 17.012 127.839, 15.931 130.531, 18.200 132.800 C 20.974 135.574, 23.700 133.984, 32.422 124.500 L 41.159 115 57.080 115 C 65.836 115, 73 115.328, 73 115.728 C 73 116.128, 69.518 119.958, 65.262 124.239 C 58.746 130.794, 57.697 132.297, 58.615 133.761 C 59.395 135.004, 61.246 135.568, 65.103 135.739 C 68.071 135.870, 72.927 136.248, 75.894 136.579 L 81.288 137.180 69.894 148.650 L 58.500 160.120 46.397 159.815 C 33.751 159.497, 31 160.231, 31 163.922 C 31 166.634, 33.124 167.996, 37.450 168.058 C 39.678 168.089, 43.200 168.427, 45.278 168.808 L 49.057 169.500 40.528 177.978 C 32.097 186.360, 30.594 189.194, 33.200 191.800 C 35.714 194.314, 38.496 192.778, 47.594 183.856 L 56.918 174.712 57.209 183.487 C 57.459 191.035, 57.786 192.453, 59.546 193.618 C 61.298 194.779, 61.929 194.738, 63.929 193.337 C 66.234 191.723, 66.256 191.527, 65.593 179.100 L 64.920 166.500 76.460 155.016 L 88 143.533 88 153.566 C 88 168.456, 89.248 169.049, 100.066 159.303 L 107.500 152.606 107.797 168.553 L 108.094 184.500 99.047 193.126 C 90.178 201.582, 88.648 204.248, 91.200 206.800 C 93.548 209.148, 96.509 207.933, 102.221 202.281 L 108 196.563 108 209.210 C 108 219.374, 108.309 222.166, 109.571 223.429 C 111.414 225.271, 112.438 225.371, 115.066 223.965 C 116.827 223.022, 117 221.758, 117 209.843 L 117 196.756 123.404 202.378 C 130.193 208.339, 133.244 209.280, 135.020 205.962 C 136.688 202.845, 135.548 201.150, 125.963 192.500 L 117.099 184.500 117.050 167.577 L 117 150.653 124.885 158.327 C 129.222 162.547, 133.160 165.993, 133.635 165.985 C 136.698 165.930, 137.436 163.830, 137.829 154.060 C 138.051 148.527, 138.525 144, 138.883 144 C 139.240 144, 144.636 149.118, 150.873 155.372 L 162.213 166.745 162.059 180.312 C 161.917 192.883, 162.050 193.956, 163.880 194.936 C 168.718 197.525, 171 193.808, 171 183.338 L 171 175.544 179.271 183.772 C 183.820 188.297, 188.294 192, 189.214 192 C 190.134 192, 191.580 191.010, 192.427 189.800 C 193.821 187.810, 193.811 187.357, 192.322 185.050 C 191.416 183.648, 187.851 179.688, 184.399 176.250 L 178.122 170 183.436 170 C 194.157 170, 198.463 167.601, 196 163 C 195.017 161.163, 193.896 160.999, 182.215 160.982 L 169.500 160.964 156.546 148.482 L 143.591 136 153.714 136 C 159.281 136, 164.548 135.727, 165.418 135.393 C 168.542 134.194, 167.015 130.437, 160.500 123.299 C 156.925 119.382, 154 115.913, 154 115.589 C 154 115.265, 161.393 115, 170.430 115 L 186.860 115 195.630 124.500 C 204.359 133.956, 207.062 135.538, 209.800 132.800 C 212.176 130.424, 210.974 127.406, 205.500 122 C 202.475 119.013, 200 116.215, 200 115.784 C 200 115.353, 205.105 115, 211.345 115 C 221.066 115, 222.927 114.738, 224.345 113.171 C 226.086 111.247, 226.666 107.470, 225.069 108.457 C 224.557 108.774, 223.856 108.575, 223.510 108.016 C 223.143 107.422, 218.063 107, 211.289 107 L 199.696 107 205.415 101.004 C 211.788 94.323, 212.639 90.501, 208.124 88.844 C 206.013 88.068, 204.672 89.029, 196.065 97.486 L 186.381 107 169.691 107 C 160.511 107, 153 106.650, 153 106.223 C 153 105.796, 156.150 102.320, 160 98.500 C 163.850 94.680, 167 90.743, 167 89.752 C 167 87.131, 162.990 86, 153.690 86 L 145.511 86 157.123 74.388 L 168.736 62.775 181.453 62.939 C 194.656 63.109, 197 62.505, 197 58.934 C 197 55.604, 193.116 54, 185.051 54 L 177.547 54 185.273 46.228 C 191.072 40.395, 193 37.784, 193 35.763 C 193 33.379, 190.724 31, 188.444 31 C 188.065 31, 183.986 34.680, 179.378 39.177 L 171 47.355 171 39.249 C 171 33.213, 170.599 30.742, 169.429 29.571 C 167.368 27.511, 165.684 27.586, 163.655 29.829 C 162.302 31.324, 162 33.925, 162 44.094 L 162 56.530 149.533 68.967 L 137.067 81.403 136.783 69.452 C 136.514 58.103, 136.392 57.485, 134.359 57.195 C 132.887 56.985, 129.919 58.931, 124.859 63.425 L 117.500 69.960 117.225 53.916 L 116.950 37.871 126.702 28.583 C 136.108 19.624, 136.412 19.200, 135.249 16.647 C 133.413 12.618, 130.466 13.347, 123.361 19.585 L 117 25.169 117 13.620 C 117 3.225, 116.807 1.967, 115.066 1.035 C 112.438 -0.371, 111.414 -0.271, 109.571 1.571 M 94 74.695 C 94 78.623, 93.768 82.440, 93.485 83.178 C 93.192 83.943, 96.195 87.838, 100.485 92.256 L 108 99.993 108 90.720 L 108 81.446 101 74.500 L 94 67.554 94 74.695 M 123.243 73.794 L 116.986 79.500 116.993 90.473 L 117 101.446 124 94.500 L 131 87.554 131 77.777 C 131 72.400, 130.662 68.020, 130.250 68.044 C 129.838 68.067, 126.684 70.655, 123.243 73.794 M 132 99.500 L 124.550 107 133.372 107 L 142.194 107 149.180 100.256 C 155.732 93.931, 156.021 93.471, 153.833 92.855 C 152.550 92.495, 148.789 92.155, 145.475 92.100 L 139.450 92 132 99.500 M 70 93.639 C 70 93.991, 72.513 97.141, 75.585 100.639 L 81.169 107 91.085 107 C 96.538 107, 101 106.650, 101 106.221 C 101 105.793, 98.175 102.643, 94.723 99.221 L 88.446 93 79.223 93 C 74.150 93, 70 93.288, 70 93.639 M 0.158 111 C 0.158 112.375, 0.385 112.938, 0.662 112.250 C 0.940 111.563, 0.940 110.438, 0.662 109.750 C 0.385 109.063, 0.158 109.625, 0.158 111 M 76.649 121.934 C 72.736 125.747, 69.759 129.092, 70.033 129.366 C 70.307 129.641, 74.498 129.960, 79.345 130.077 L 88.159 130.289 95.079 123.421 C 98.886 119.644, 102 116.204, 102 115.777 C 102 115.350, 97.897 115, 92.882 115 L 83.763 115 76.649 121.934 M 124 115.566 C 124 115.878, 126.856 119.045, 130.346 122.604 L 136.691 129.076 146.446 128.788 L 156.201 128.500 150.012 121.750 L 143.823 115 133.911 115 C 128.460 115, 124 115.255, 124 115.566 M 117 131.052 L 117 140.554 123.856 147.357 L 130.712 154.161 131.345 150.330 C 131.693 148.224, 131.983 144.239, 131.989 141.475 C 132 136.546, 131.857 136.308, 124.500 129 L 117 121.550 117 131.052 M 101.250 130.244 L 95 136.554 95 145.277 C 95 150.075, 95.338 153.980, 95.750 153.955 C 96.162 153.930, 99.104 151.506, 102.288 148.568 L 108.075 143.226 107.788 133.580 L 107.500 123.933 101.250 130.244" stroke="none" fill="#45c6f2" fill-rule="evenodd"/><path d="M 0 54.700 C 0 97.244, 0.267 109.133, 1.200 108.200 C 2.010 107.390, 6.612 107, 15.352 107 L 28.304 107 22.652 101.074 C 15.962 94.060, 15.315 90.532, 20.374 88.661 C 21.835 88.121, 24.381 90.064, 31.933 97.484 L 41.619 107 56.309 107 C 64.389 107, 71 106.701, 71 106.336 C 71 105.971, 68.383 102.709, 65.184 99.086 C 58.155 91.125, 57.830 90.607, 58.604 88.590 C 59.110 87.271, 61.072 87, 70.107 87 C 76.098 87, 81 86.655, 81 86.233 C 81 85.811, 76.162 80.647, 70.250 74.758 L 59.500 64.051 45.500 63.775 L 31.500 63.500 31.187 60.249 C 30.786 56.096, 33.315 55, 43.295 55 L 50.460 55 41.230 45.731 C 36.154 40.633, 32 35.716, 32 34.803 C 32 32.739, 34.642 30, 36.633 30 C 37.452 30, 42.088 33.997, 46.936 38.881 L 55.750 47.762 56.366 42.631 C 56.705 39.809, 56.987 36.053, 56.991 34.285 C 57.002 30.371, 59.870 28.325, 63 30 C 65.283 31.222, 65.221 30.727, 65.005 45.928 L 64.843 57.355 75.530 67.736 C 81.408 73.445, 86.414 77.919, 86.655 77.678 C 86.896 77.437, 87.410 72.799, 87.797 67.370 C 88.467 57.960, 88.611 57.484, 90.888 57.162 C 92.738 56.901, 94.937 58.474, 100.638 64.137 L 108 71.450 108 54.386 L 108 37.321 99 28.609 C 90.199 20.090, 88.769 17.631, 91.200 15.200 C 93.548 12.852, 96.509 14.067, 102.221 19.719 L 108 25.437 108 14.290 C 108 5.490, 108.331 2.812, 109.571 1.571 C 111 0.143, 106.091 -0, 55.571 -0 L 0 0 0 54.700 M 115.250 1.080 C 116.757 1.958, 117 3.704, 117 13.634 L 117 25.169 123.361 19.585 C 130.466 13.347, 133.413 12.618, 135.249 16.647 C 136.412 19.200, 136.108 19.624, 126.702 28.583 L 116.950 37.871 117.225 53.916 L 117.500 69.960 124.859 63.425 C 129.919 58.931, 132.887 56.985, 134.359 57.195 C 136.392 57.485, 136.514 58.103, 136.783 69.452 L 137.067 81.403 149.533 68.967 L 162 56.530 162 43.920 C 162 32.974, 162.241 31.092, 163.829 29.655 C 166.112 27.589, 167.426 27.569, 169.429 29.571 C 170.599 30.742, 171 33.213, 171 39.249 L 171 47.355 179.378 39.177 C 183.986 34.680, 188.065 31, 188.444 31 C 190.724 31, 193 33.379, 193 35.763 C 193 37.784, 191.072 40.395, 185.273 46.228 L 177.547 54 185.051 54 C 193.116 54, 197 55.604, 197 58.934 C 197 62.505, 194.656 63.109, 181.453 62.939 L 168.736 62.775 157.123 74.388 L 145.511 86 153.690 86 C 162.990 86, 167 87.131, 167 89.752 C 167 90.743, 163.850 94.680, 160 98.500 C 156.150 102.320, 153 105.796, 153 106.223 C 153 106.650, 160.511 107, 169.691 107 L 186.381 107 196.065 97.486 C 204.672 89.029, 206.013 88.068, 208.124 88.844 C 212.639 90.501, 211.788 94.323, 205.415 101.004 L 199.696 107 211.148 107 C 218.722 107, 223.006 107.406, 223.800 108.200 C 224.733 109.133, 225 97.244, 225 54.700 L 225 0 169.250 0.030 C 130.889 0.051, 114.046 0.379, 115.250 1.080 M 94 74.695 C 94 78.623, 93.768 82.440, 93.485 83.178 C 93.192 83.943, 96.195 87.838, 100.485 92.256 L 108 99.993 108 90.720 L 108 81.446 101 74.500 L 94 67.554 94 74.695 M 123.243 73.794 L 116.986 79.500 116.993 90.473 L 117 101.446 124 94.500 L 131 87.554 131 77.777 C 131 72.400, 130.662 68.020, 130.250 68.044 C 129.838 68.067, 126.684 70.655, 123.243 73.794 M 132 99.500 L 124.550 107 133.372 107 L 142.194 107 149.180 100.256 C 155.732 93.931, 156.021 93.471, 153.833 92.855 C 152.550 92.495, 148.789 92.155, 145.475 92.100 L 139.450 92 132 99.500 M 70 93.639 C 70 93.991, 72.513 97.141, 75.585 100.639 L 81.169 107 91.085 107 C 96.538 107, 101 106.650, 101 106.221 C 101 105.793, 98.175 102.643, 94.723 99.221 L 88.446 93 79.223 93 C 74.150 93, 70 93.288, 70 93.639 M 0 168.800 L 0 225 55.571 225 C 106.091 225, 111 224.857, 109.571 223.429 C 108.309 222.166, 108 219.374, 108 209.210 L 108 196.563 102.221 202.281 C 96.509 207.933, 93.548 209.148, 91.200 206.800 C 88.648 204.248, 90.178 201.582, 99.047 193.126 L 108.094 184.500 107.797 168.553 L 107.500 152.606 100.066 159.303 C 89.248 169.049, 88 168.456, 88 153.566 L 88 143.533 76.460 155.016 L 64.920 166.500 65.593 179.100 C 66.256 191.527, 66.234 191.723, 63.929 193.337 C 61.929 194.738, 61.298 194.779, 59.546 193.618 C 57.786 192.453, 57.459 191.035, 57.209 183.487 L 56.918 174.712 47.594 183.856 C 38.496 192.778, 35.714 194.314, 33.200 191.800 C 30.594 189.194, 32.097 186.360, 40.528 177.978 L 49.057 169.500 45.278 168.808 C 43.200 168.427, 39.678 168.089, 37.450 168.058 C 33.124 167.996, 31 166.634, 31 163.922 C 31 160.231, 33.751 159.497, 46.397 159.815 L 58.500 160.120 69.894 148.650 L 81.288 137.180 75.894 136.579 C 72.927 136.248, 68.071 135.870, 65.103 135.739 C 61.246 135.568, 59.395 135.004, 58.615 133.761 C 57.697 132.297, 58.746 130.794, 65.262 124.239 C 69.518 119.958, 73 116.128, 73 115.728 C 73 115.328, 65.836 115, 57.080 115 L 41.159 115 32.422 124.500 C 23.700 133.984, 20.974 135.574, 18.200 132.800 C 15.931 130.531, 17.012 127.839, 22.500 122.085 C 25.525 118.914, 28 116.022, 28 115.660 C 28 115.297, 22.240 115, 15.200 115 C 6.578 115, 2.008 114.608, 1.200 113.800 C 0.267 112.867, 0 125.089, 0 168.800 M 223.500 114 C 223.146 114.572, 217.990 115, 211.441 115 C 205.148 115, 200 115.353, 200 115.784 C 200 116.215, 202.475 119.013, 205.500 122 C 210.974 127.406, 212.176 130.424, 209.800 132.800 C 207.062 135.538, 204.359 133.956, 195.630 124.500 L 186.860 115 170.430 115 C 161.393 115, 154 115.265, 154 115.589 C 154 115.913, 156.925 119.382, 160.500 123.299 C 167.015 130.437, 168.542 134.194, 165.418 135.393 C 164.548 135.727, 159.281 136, 153.714 136 L 143.591 136 156.546 148.482 L 169.500 160.964 182.215 160.982 C 193.896 160.999, 195.017 161.163, 196 163 C 198.463 167.601, 194.157 170, 183.436 170 L 178.122 170 184.399 176.250 C 187.851 179.688, 191.416 183.648, 192.322 185.050 C 193.811 187.357, 193.821 187.810, 192.427 189.800 C 191.580 191.010, 190.134 192, 189.214 192 C 188.294 192, 183.820 188.297, 179.271 183.772 L 171 175.544 171 183.338 C 171 193.808, 168.718 197.525, 163.880 194.936 C 162.050 193.956, 161.917 192.883, 162.059 180.312 L 162.213 166.745 150.873 155.372 C 144.636 149.118, 139.240 144, 138.883 144 C 138.525 144, 138.051 148.527, 137.829 154.060 C 137.436 163.830, 136.698 165.930, 133.635 165.985 C 133.160 165.993, 129.222 162.547, 124.885 158.327 L 117 150.653 117.050 167.577 L 117.099 184.500 125.963 192.500 C 135.548 201.150, 136.688 202.845, 135.020 205.962 C 133.244 209.280, 130.193 208.339, 123.404 202.378 L 117 196.756 117 209.828 C 117 221.223, 116.775 223.031, 115.250 223.920 C 114.046 224.621, 130.889 224.949, 169.250 224.970 L 225 225 225 169 C 225 138.200, 224.802 113, 224.559 113 C 224.316 113, 223.840 113.450, 223.500 114 M 76.649 121.934 C 72.736 125.747, 69.759 129.092, 70.033 129.366 C 70.307 129.641, 74.498 129.960, 79.345 130.077 L 88.159 130.289 95.079 123.421 C 98.886 119.644, 102 116.204, 102 115.777 C 102 115.350, 97.897 115, 92.882 115 L 83.763 115 76.649 121.934 M 124 115.566 C 124 115.878, 126.856 119.045, 130.346 122.604 L 136.691 129.076 146.446 128.788 L 156.201 128.500 150.012 121.750 L 143.823 115 133.911 115 C 128.460 115, 124 115.255, 124 115.566 M 117 131.052 L 117 140.554 123.856 147.357 L 130.712 154.161 131.345 150.330 C 131.693 148.224, 131.983 144.239, 131.989 141.475 C 132 136.546, 131.857 136.308, 124.500 129 L 117 121.550 117 131.052 M 101.250 130.244 L 95 136.554 95 145.277 C 95 150.075, 95.338 153.980, 95.750 153.955 C 96.162 153.930, 99.104 151.506, 102.288 148.568 L 108.075 143.226 107.788 133.580 L 107.500 123.933 101.250 130.244" stroke="none" fill="#fbfbfb" fill-rule="evenodd"/></svg>